<?xml version="1.0" encoding="utf-8"?>
<!-- Generator: Adobe Illustrator 23.0.3, SVG Export Plug-In . SVG Version: 6.00 Build 0)  -->
<svg version="1.1" id="Icons" xmlns="http://www.w3.org/2000/svg" xmlns:xlink="http://www.w3.org/1999/xlink" x="0px" y="0px"
	 viewBox="0 0 32 32" style="enable-background:new 0 0 32 32;" xml:space="preserve">
<path d="M29,2H3C1.3,2,0,3.3,0,5v16c0,1.7,1.3,3,3,3h26c1.7,0,3-1.3,3-3V5C32,3.3,30.7,2,29,2z M7.7,14.3c0.4,0.4,0.4,1,0,1.4
	C7.5,15.9,7.3,16,7,16s-0.5-0.1-0.7-0.3l-2-2c-0.4-0.4-0.4-1,0-1.4l2-2c0.4-0.4,1-0.4,1.4,0s0.4,1,0,1.4L6.4,13L7.7,14.3z
	 M27.7,13.7l-2,2C25.5,15.9,25.3,16,25,16s-0.5-0.1-0.7-0.3c-0.4-0.4-0.4-1,0-1.4l1.3-1.3l-1.3-1.3c-0.4-0.4-0.4-1,0-1.4
	s1-0.4,1.4,0l2,2C28.1,12.7,28.1,13.3,27.7,13.7z"/>
<circle cx="16" cy="28" r="2"/>
<circle cx="10" cy="28" r="2"/>
<circle cx="22" cy="28" r="2"/>
</svg>
